PathFileType	4	(X/Y/Z)	c:\Git\powerlifing_model_clean\simulations\HC835B\Session1\HC835B_CUT_0001\marker_experimental.trc
DataRate	CameraRate	NumFrames	NumMarkers	Units	OrigDataRate	OrigDataStartFrame	OrigNumFrames
240.000000	240.000000	4	38	mm	240.000000	18	75
Frame#	Time	RPSI			LPSI			RASI			LASI			RTH1			RTH2			RTH3			RTH4			RSK1			RSK2			RSK3			RSK4			RCAL1			RCAL2			RCAL3			RST			RPT			RTN			RFMB			RSMB			RVMB			RFMH			RSMH			RVMH			RPM			LTH1			LTH2			LTH3			LTH4			LSK1			LSK2			LSK3			LSK4			LCAL1			LCAL2			LCAL3			LFMH			LVMH			
		X1	Y1	Z1	X2	Y2	Z2	X3	Y3	Z3	X4	Y4	Z4	X5	Y5	Z5	X6	Y6	Z6	X7	Y7	Z7	X8	Y8	Z8	X9	Y9	Z9	X10	Y10	Z10	X11	Y11	Z11	X12	Y12	Z12	X13	Y13	Z13	X14	Y14	Z14	X15	Y15	Z15	X16	Y16	Z16	X17	Y17	Z17	X18	Y18	Z18	X19	Y19	Z19	X20	Y20	Z20	X21	Y21	Z21	X22	Y22	Z22	X23	Y23	Z23	X24	Y24	Z24	X25	Y25	Z25	X26	Y26	Z26	X27	Y27	Z27	X28	Y28	Z28	X29	Y29	Z29	X30	Y30	Z30	X31	Y31	Z31	X32	Y32	Z32	X33	Y33	Z33	X34	Y34	Z34	X35	Y35	Z35	X36	Y36	Z36	X37	Y37	Z37	X38	Y38	Z38	

19	0.075	349.6127319335938	1069.821411132813	-178.0137634277344	260.4744873046876	1065.200561523438	-115.846664428711	286.6376647949219	1014.233276367188	-364.7061157226563	88.5121536254883	1008.98779296875	-234.7149963378907	457.0436401367189	786.447448730469	-421.1076049804689	420.7208557128907	786.2952270507815	-470.019989013672	457.324676513672	717.0277099609376	-469.4351196289064	414.018524169922	710.5062866210939	-508.5178527832032	592.5250854492189	304.9596862792969	-562.5086669921876	568.0216674804689	301.7435607910157	-621.4367675781251	598.4280395507814	255.1345520019532	-593.7824707031251	565.8503417968751	247.7551422119141	-643.8921508789064	617.8861694335939	108.2390823364258	-559.4406127929689	601.1078491210939	60.71509552001955	-557.3186035156251	657.7967529296876	85.01151275634767	-574.4854736328126	561.9511108398439	59.91786956787111	-620.3877563476564	655.2443847656251	95.55786895751955	-638.7991943359376	552.8831176757814	79.40444946289064	-676.0512084960939	553.3364868164064	64.34945678710939	-710.5226440429689	583.7749633789064	102.8681030273438	-732.9945068359376	662.9087524414064	71.65908050537111	-683.3875122070314	546.3293457031251	42.90682601928712	-758.6744995117189	585.9069213867189	67.16368865966798	-791.0784301757815	658.8886108398439	56.38940048217775	-763.8070678710939	564.4094238281251	44.40337753295899	-844.607604980469	75.43369293212892	696.2659912109376	-126.3419647216797	36.04066467285157	692.0047607421876	-172.5911865234375	56.55822372436525	616.3905639648439	-150.4825897216797	28.99193191528321	612.6037597656251	-204.5682830810547	248.1250610351563	483.6590270996095	44.26324081420899	251.3107147216797	431.3482971191407	55.81637954711915	282.0487060546876	460.0734252929689	82.8910598754883	295.8033752441407	405.6793823242189	82.56682586669923	428.8713684082032	497.6948547363282	168.0161743164063	423.6465759277345	492.0527648925782	215.4124908447266	471.5539855957032	481.9771423339845	182.4892883300782	424.6883544921876	267.5341796875001	148.6834869384766	361.0010986328126	308.5355529785157	234.063461303711	
20	0.07916666666666666	350.8280029296876	1066.347045898438	-197.2115936279297	261.8414611816407	1061.531494140625	-134.8925323486328	286.5817565917969	1009.820678710938	-383.6531066894532	88.7157669067383	1005.464416503906	-253.3419342041016	455.2527770996095	782.629821777344	-439.1459350585939	419.0005187988282	782.6655273437502	-487.8447265625001	454.8424072265626	713.0367431640626	-487.2941284179689	411.5352478027345	706.8814086914064	-526.4395141601564	591.7107543945314	299.1254577636719	-573.8612670898439	567.6144409179689	294.0615234375001	-630.3675537109376	598.5841674804689	248.9158935546876	-603.6018066406251	566.1601562500001	239.9798278808594	-653.6846313476564	620.5380249023439	104.769889831543	-565.7526855468751	603.2790527343751	57.50703048706056	-562.1450805664064	661.6242065429689	81.1422805786133	-580.1658935546876	564.4346923828126	55.49102020263673	-625.8972778320314	659.8449707031251	90.00753784179689	-643.6960449218751	555.9468994140626	74.92333984375001	-682.4168701171876	557.0485839843751	60.90272521972658	-716.7548828125001	588.1801757812501	99.28041839599612	-739.5903320312501	666.9360961914064	65.19480133056642	-688.0063476562501	550.0749511718751	43.95576095581055	-765.5604248046876	591.4367675781251	63.8832473754883	-797.8422851562502	664.6916503906251	50.94219207763673	-768.1052856445315	570.3969116210939	38.53514099121094	-851.3177490234377	71.2401809692383	692.8941040039064	-148.7816925048828	31.7284049987793	689.9715576171876	-195.0427551269532	50.98367309570314	613.6398925781251	-174.2439270019532	23.56986999511719	611.1752319335939	-228.5981597900391	241.0553283691407	483.3956298828126	16.13452911376953	245.8529510498047	431.2392883300782	27.30568885803223	276.1492004394532	460.5496826171876	54.247615814209	291.2006530761719	406.5246582031251	53.3983840942383	423.1865844726564	500.9459533691407	138.1677856445313	418.659881591797	494.8863220214845	185.6121673583985	466.3143310546876	485.8143310546876	151.960922241211	422.5113830566407	270.9486999511719	117.2822723388672	359.3529663085938	310.2605590820313	203.7655334472657	
21	0.08333333333333333	351.8998413085938	1062.77392578125	-216.0154571533204	263.1726684570313	1057.691040039063	-153.6786804199219	286.6108398437501	1005.538269042969	-402.4289855957032	89.13369750976564	1001.797302246094	-272.0578308105469	453.3013916015626	778.7274169921877	-457.3176574707032	417.2906188964845	779.296813964844	-506.3027343750001	452.2270507812501	709.1788330078126	-505.3502807617189	409.1405639648439	703.6688232421876	-544.9879760742189	591.9674072265626	294.1956787109376	-582.4861450195314	569.3397216796876	286.3863220214844	-637.5445556640626	600.2025146484376	243.355941772461	-610.6530151367189	568.6860961914064	232.4927825927735	-660.9172363281251	627.6282348632814	102.0453414916992	-569.9686279296876	608.5625000000001	56.04361724853517	-564.3977050781251	667.4676513671876	76.29573822021486	-583.4340820312501	568.6917114257814	53.97766113281251	-628.0033569335939	666.5105590820314	83.43952941894533	-647.2198486328126	560.7343750000001	72.13381195068361	-685.4900512695314	561.4325561523439	59.7596778869629	-719.5863647460939	595.0186767578126	95.03000640869142	-741.5869140625001	673.1856079101564	57.91272354125978	-690.6594238281251	554.9011230468751	43.5412940979004	-768.1899414062502	596.9509887695314	60.74905014038087	-801.2043457031252	670.6759643554689	44.09099960327149	-770.0225219726565	575.3581542968751	34.91941070556641	-855.2227172851565	66.95515441894533	689.5157470703126	-171.4265594482422	27.49177360534669	688.1917724609376	-217.7900848388672	45.49354553222657	611.2515258789064	-198.3719482421876	18.20220565795899	610.2810058593751	-252.7579345703126	234.5171661376954	482.9786071777345	-12.19621944427491	240.5109405517579	430.7940368652345	-1.656174898147583	270.5033874511719	460.6099548339845	25.15958213806153	286.6849975585938	406.859588623047	23.73724937438965	417.7720947265626	503.3268127441407	107.9967651367188	413.9580993652345	496.8079833984376	155.4358673095703	461.270965576172	488.6607971191407	121.084342956543	420.1711730957032	273.4413146972657	85.05415344238283	357.3247680664063	311.4985351562501	172.3651123046875	
22	0.08749999999999999	353.8410949707032	1059.208618164063	-234.2552337646485	264.4761962890626	1053.7275390625	-172.1922149658203	286.7100830078126	1001.244995117188	-421.1959533691407	89.64987945556642	997.5591430664065	-290.9357910156251	451.457000732422	775.1470947265627	-475.6780395507814	415.4512023925782	775.9890747070315	-524.4637451171876	449.8094177246095	705.6452636718751	-523.7609252929689	406.9569396972657	700.6868286132814	-563.7062377929689	592.9857788085939	290.8201599121094	-588.6281738281251	571.6193237304689	281.3482666015626	-645.6673583984376	603.4269409179689	239.3622131347657	-614.8615112304689	573.4604492187501	225.8705596923829	-665.1946411132814	638.0884399414064	98.19374847412112	-570.8356933593751	615.6587524414064	53.88612747192384	-564.3720092773439	675.7587890625001	69.50386047363283	-583.9378662109376	574.3211059570314	54.28370285034181	-626.9674682617189	675.6667480468751	76.4474563598633	-647.9462890625001	566.2048339843751	71.49602508544923	-684.8282470703126	566.5902099609376	60.11118316650392	-718.8337402343751	602.3261718750001	93.28651428222658	-740.5897827148439	679.7995605468751	51.41761016845705	-691.0962524414064	558.8371582031251	43.19524002075196	-768.1485595703127	601.2465820312501	59.29254150390626	-801.2099609375002	674.8684082031251	40.7219467163086	-770.3280029296877	577.0177612304689	34.66844940185548	-855.5176391601565	62.59860229492189	686.1334228515626	-194.2683105468751	23.2752857208252	686.3139038085939	-240.7752685546876	39.92379760742188	608.8429565429689	-222.7396240234376	12.91273784637452	609.2581176757814	-277.4306030273438	228.203842163086	482.3380126953126	-40.8934555053711	235.3343963623047	429.9799804687501	-31.04712104797364	264.9551086425782	460.2073059082032	-4.195797920227052	282.3008728027344	406.7148742675782	-6.390298843383791	412.5797424316407	504.7629699707032	77.55854797363283	409.4534912109376	497.7271728515626	124.9753646850586	456.4438476562501	490.6085815429689	89.93908691406251	417.7647705078126	275.1748046875001	52.11449813842775	355.9882507324219	311.1030578613282	140.9430236816407	
